<svg version="1.1" id="Layer_1" xmlns="http://www.w3.org/2000/svg" xmlns:xlink="http://www.w3.org/1999/xlink" x="0px" y="0px"
	 viewBox="0 0 623.5 175.8" style="enable-background:new 0 0 623.5 175.8;" xml:space="preserve">
<style type="text/css">
	.st0{fill:#FFFFFF;}
	.st1{fill:#DE2027;}
	.st2{fill:#5F5F5F;}
	.st3{fill:#0384C0;}
	.st4{opacity:0.302;fill:#FFFFFF;}
	.st5{fill:#024260;}
	.st6{fill:none;stroke:#707070;stroke-width:1.7924;}
	.st7{fill:#8DC63F;}
	.st8{fill:#B0D779;}
	.st9{fill:#4FA9D3;}
	.st10{fill:#5D8D1D;}
	.st11{fill:#393939;}
	.st12{fill:#E86368;}
	.st13{fill:#777777;}
	.st14{fill:#BEBEBE;}
	.st15{fill:#33FF33;}
</style>
<g>
	<path class="st0" d="M144,108.5c0.8,2.7,2.2,5,4.1,6.9c1.9,1.9,4.4,3.1,7.6,3.6c0.2,0,0.4,0,0.6,0.1c0.2,0,0.4,0.1,0.6,0.2
		c0.6,0.1,1.1,0.2,1.7,0.3c0.6,0.1,1.2,0.1,1.9,0.1h1c0.4,0,0.7,0,1-0.1c1.9-0.2,3.6-0.6,5.4-1.4c1.7-0.8,3.1-1.9,4.1-3.2
		c0.5-0.8,0.9-1.6,1.3-2.5c0.4-0.9,0.6-1.8,0.7-2.8c0.1-0.3,0.1-0.5,0.1-0.7v-0.7c0-0.4,0-0.8-0.1-1.2c0-0.4-0.1-0.8-0.2-1.2
		c-0.1-0.7-0.2-1.3-0.4-1.9c-0.2-0.6-0.5-1.2-0.8-1.7c-0.9-1.5-2.4-2.8-4.3-3.9c-2-1.1-4-2.1-6.3-3c-1.5-0.7-3-1.3-4.5-1.9
		c-1.5-0.6-2.8-1.1-3.9-1.7c-0.1,0-0.2,0-0.3-0.1c-0.1,0-0.2-0.1-0.3-0.2c-4-2-7.7-4.4-11.2-7.2c-3.5-2.8-5.6-6.5-6.3-11
		c0-0.3,0-0.5-0.1-0.8c0-0.3-0.1-0.6-0.1-0.8c-0.1-0.3-0.2-0.5-0.2-0.8c0-0.3-0.1-0.6-0.1-0.8c0-0.5,0-1.1,0.1-1.6
		c0-0.6,0.1-1.1,0.2-1.7c0.4-2.1,1-4.1,2-6.1c1-2,2.2-3.7,3.7-5.2c2.1-2.2,4.9-4,8.2-5.3c3.3-1.3,6.8-2.1,10.3-2.3h0.9h0.9h1.1
		c0.4,0,0.7,0,1.1,0.1c4.6,0.3,9.1,1.5,13.2,3.7c4.2,2.2,7.2,5.4,8.9,9.6L175,66.2c-1.6-2.2-3.4-4-5.5-5.4c-2.1-1.3-4.6-2-7.5-2
		h-0.4c-3.3,0.1-6,1.1-8.2,3.1c-2.2,2-3.5,4.2-3.8,6.6V69v0.3c0,0.3,0,0.6,0.1,0.9c0,0.3,0.1,0.6,0.2,0.9c0.2,1.1,0.6,2.2,1.4,3.2
		c0.7,1,1.7,1.9,2.8,2.7c1.9,1.5,3.9,2.9,6.2,3.9c2.3,1.1,4.6,2,6.9,2.9c0.2,0.1,0.3,0.1,0.4,0.2c0.1,0,0.2,0.1,0.4,0.2
		c1.8,0.7,3.5,1.4,5.2,2.1c1.7,0.7,3.3,1.6,4.8,2.5c3,1.9,5.3,4.2,7,7c1.7,2.8,2.8,5.6,3.1,8.5c0.1,0.5,0.2,1,0.2,1.6
		c0,0.5,0.1,1,0.1,1.6c0,4.7-1.4,9-4.3,13.2c-2.8,4.1-6.9,7.1-12.1,8.8c-0.9,0.3-1.9,0.5-2.9,0.8c-1,0.3-2,0.4-3.1,0.5
		c-1.1,0.2-2.2,0.3-3.2,0.4c-1,0.1-2,0.1-2.9,0.1c-6.1,0-11.8-1.5-17-4.5c-5.2-3-8.7-7.5-10.5-13.6L144,108.5z"/>
	<rect x="206.2" y="49.4" class="st0" width="14.1" height="80.2"/>
	<path class="st0" d="M341.1,46.3l54.7,48.8c0.5,0.4,0.9,0.8,1.3,1.2c0.4,0.4,0.8,0.8,1.3,1.2c0.6,0.5,1.1,1.1,1.6,1.6
		c0.5,0.6,1,1.1,1.6,1.7c0.6,0.6,1.3,1.3,1.9,1.9c0.6,0.7,1.2,1.4,1.9,2.1V49.4H418v83.2l-55.8-49.7c-1.6-1.4-3-2.8-4.4-4.3
		c-1.3-1.5-2.7-3.1-4-4.7v55.8h-12.8V46.3z"/>
	<path class="st0" d="M469.8,46.3l-41.6,83.3H443l9.9-20.7l5.2-10.8l8.8-18.3c0.7-1.5,1.4-3,1.9-4.5c0.5-1.6,1-3.1,1.3-4.7
		c0.1,0.3,0.2,0.7,0.3,1c0.1,0.3,0.2,0.6,0.3,0.8c0.4,1.3,0.8,2.5,1.2,3.8c0.4,1.2,0.9,2.4,1.5,3.6l8.8,18.3H465l-9.1,10.8h31.2
		l9.6,20.7h14.9L469.8,46.3z"/>
	<polygon class="st0" points="525.1,49.4 539.1,49.4 539.1,117.8 574.2,117.8 574.2,129.6 525.1,129.6 	"/>
	<path class="st0" d="M321.4,88.6h-36L277,99.5h30.2l-0.1,0c-0.6,19-22.1,20.4-22.1,20.4c-0.1,0-0.2,0-0.3,0
		c-0.7,0.1-1.4,0.1-2.2,0.1c-7.6,0-14.5-2.2-20.5-6.6c-6-4.4-9.8-10.4-11.2-18c0-0.3,0-0.7-0.1-1.1c0-0.4-0.1-0.8-0.2-1.2
		c0-0.2,0-0.4-0.1-0.6c0-0.2-0.1-0.4-0.1-0.6c0-0.4,0-0.9-0.1-1.3c-0.1-0.4-0.1-0.9-0.1-1.3c0-6.4,1.9-12.3,5.7-17.7
		c3.8-5.4,9.3-9.1,16.7-11.1c0.4-0.1,0.7-0.2,1-0.3c0.3-0.1,0.6-0.1,0.9-0.1c1.4-0.3,2.7-0.5,4-0.6c1.3-0.1,2.6-0.2,3.8-0.2
		c4.1,0,8,0.8,11.6,2.3c3.7,1.6,7.1,3.8,10.3,6.9l10.2-7.1c-4.3-4.6-9.4-8-15.3-10.4c-5.9-2.3-12-3.5-18.2-3.5c-1.3,0-2.6,0-3.9,0.1
		c-1.3,0.1-2.6,0.3-3.9,0.5c-2.2,0.3-4.5,0.8-6.8,1.5c-2.3,0.6-4.4,1.5-6.5,2.5c-7.9,3.5-13.9,8.7-18,15.6
		c-4.1,6.9-6.1,14.1-6.1,21.7c0,0.8,0,1.6,0.1,2.4c0,0.8,0.1,1.7,0.2,2.5c0.4,3.3,1.2,6.5,2.4,9.8c1.2,3.2,2.8,6.3,4.7,9.3
		c3.6,5.6,8.8,9.9,15.4,12.8c6.6,2.9,13.6,4.6,20.8,4.9h2.2c1,0,2,0,3.1-0.1h0c36.6-2.8,36.4-33.5,36.4-33.5L321.4,88.6z"/>
	<path class="st1" d="M54.1,130.8v-10.2c0,0-0.6-11.4,8.3-21.6L92,67.5c0,0,3.4-3.9,4.4-7.1H42.7V46.8h69.8v11.4c0,0,0.8,4.7-7.4,13
		L76.4,103c0,0-6,7.5-6.2,16.4v11.3H54.1z"/>
	<path class="st0" d="M574.4,44.5c-2.9,0-5.2,2.3-5.2,5.2c0,2.8,2.3,5.2,5.2,5.2c2.9,0,5.2-2.3,5.2-5.2
		C579.5,46.9,577.2,44.5,574.4,44.5z M574.4,56.1c-3.5,0-6.4-2.9-6.4-6.4c0-3.5,2.9-6.4,6.4-6.4c3.5,0,6.4,2.9,6.4,6.4
		C580.8,53.2,577.9,56.1,574.4,56.1z"/>
	<path class="st0" d="M574.9,49.4c0.3,0,0.6-0.1,0.8-0.2c0.2-0.1,0.3-0.4,0.3-0.7c0-0.3-0.1-0.6-0.3-0.7c-0.2-0.1-0.4-0.2-0.8-0.2
		h-1.6v1.9H574.9z M575.4,46.4c0.3,0,0.6,0.1,0.8,0.1c0.2,0.1,0.4,0.2,0.6,0.4c0.2,0.2,0.3,0.4,0.4,0.6c0.1,0.2,0.1,0.5,0.1,0.7
		c0,0.4-0.1,0.7-0.2,1c-0.2,0.3-0.4,0.5-0.8,0.7v0c0.2,0,0.3,0.1,0.5,0.2c0.1,0.1,0.2,0.2,0.3,0.4c0.1,0.1,0.1,0.3,0.2,0.5
		c0,0.2,0.1,0.3,0.1,0.5c0,0.1,0,0.2,0,0.4c0,0.1,0,0.3,0,0.4c0,0.1,0,0.3,0.1,0.4c0,0.1,0.1,0.3,0.2,0.3h-1.5
		c-0.1-0.2-0.1-0.5-0.2-0.8c0-0.3,0-0.6-0.1-0.8c0-0.3-0.2-0.6-0.3-0.8c-0.2-0.2-0.4-0.2-0.8-0.2h-1.5v2.6h-1.5v-6.7H575.4z"/>
</g>
</svg>
